<svg width="112" height="29" viewBox="0 0 112 29" fill="none" xmlns="http://www.w3.org/2000/svg">
<g clip-path="url(#clip0_698_1694)">
<path d="M34.8257 24.2175H31.7764V22.5083H34.4084V20.0609C34.4084 19.451 33.9109 18.9615 33.3091 18.9615H30.2759V20.0127H32.9079V21.4651H30.2759V24.1693C30.2759 24.7792 30.7654 25.2687 31.3752 25.2687H34.8257V24.2175Z" fill="#009A93"/>
<path d="M33.7986 27.7001V25.8143H32.2981V27.6439C32.2981 28.2537 32.7956 28.7432 33.3974 28.7432H39.3355V27.692H33.7986V27.7001Z" fill="#009A93"/>
<path d="M39.1106 18.9615H37.6501V25.9267H39.1106V18.9615Z" fill="#009A93"/>
<path d="M37.0485 18.9615H35.5801V21.4732H34.7937V22.5163H35.5801V25.9267H37.0485V18.9615Z" fill="#009A93"/>
<path d="M60.4796 21.6497V18.9696H58.979V28.7593H59.3722C59.982 28.7593 60.4796 28.2698 60.4796 27.6599V22.7009H61.6511V21.6497H60.4796Z" fill="#009A93"/>
<path d="M52.0298 20.0208H55.6969V21.6577H52.0298V22.7089H55.6407C55.392 24.386 54.2284 25.4773 52.8723 25.4773H51.5403V26.5285H52.9044C55.3358 26.5285 57.1894 24.6027 57.1894 22.1392V18.9776H52.0298V20.0208Z" fill="#009A93"/>
<path d="M48.4109 18.9696V21.6497H47.1511V22.7009H48.4109V28.7593H48.8122C49.422 28.7593 49.9115 28.2698 49.9115 27.6599V18.9696H48.4109Z" fill="#009A93"/>
<path d="M41.1086 20.0689V24.8273C41.1086 25.4292 41.6062 25.9267 42.208 25.9267H47.0547V24.8835H42.6092V22.7009H46.2522V21.6497H42.6092V20.0127H47.0547V18.9696H42.208C41.6062 18.9696 41.1086 19.4671 41.1086 20.0689Z" fill="#009A93"/>
<path d="M5.44853 21.2886C4.42142 20.8071 3.57886 20.4139 3.57886 19.6276C3.57886 19.0257 4.06032 18.5924 5.00719 18.5924C5.35224 18.5924 5.64112 18.6325 5.93802 18.6887C6.09048 18.7128 6.25899 18.7369 6.39541 18.7369C7.22191 18.7369 7.69535 18.2393 8.0083 17.3005L8.13669 16.9153C8.00028 16.8592 6.64416 16.2654 4.87078 16.2654C2.05423 16.2654 0.569729 18.0708 0.569729 19.9485C0.569729 20.8954 0.86663 21.5775 1.33204 22.1151C1.93387 22.8132 2.78445 23.2626 3.57886 23.6478C4.74239 24.2175 5.78556 24.6428 5.78556 25.4853C5.78556 26.2316 5.01522 26.6569 3.98008 26.6569C2.55977 26.6569 1.32402 25.8464 1.16353 25.7501L0 27.9328C0.208633 28.0531 1.70116 29 4.17266 29C6.80465 29 8.79469 27.4914 8.79469 25.1724C8.79469 22.8533 6.94909 22.0028 5.44853 21.2886Z" fill="#009A93"/>
<path d="M15.7358 22.3639L20.5022 16.5221H17.0999L13.2964 21.5695H13.2402V16.5221H10.4397V28.9037H10.6082C11.8119 28.9037 13.2562 28.342 13.2562 26.3199V23.4712H13.3124L17.1882 28.7432H20.751L15.7358 22.3639Z" fill="#009A93"/>
<path d="M27.1464 11.852L27.676 11.876C27.9248 11.8921 28.1976 11.9081 28.5747 11.9081C31.1666 11.9001 32.8597 10.9773 33.7825 10.4718C31.6481 9.13172 28.5667 7.7756 24.7552 7.62314C24.5064 8.33731 22.5485 13.7858 22.396 14.2192C22.4201 14.2432 22.7651 14.6284 23.1904 15.3827C23.7842 16.3536 24.1212 17.1801 24.3459 17.806C24.8354 16.9876 24.9156 15.7197 24.9638 14.2673C25.0119 13.0396 25.2206 11.852 27.1464 11.852Z" fill="#009A93"/>
<path d="M37.0163 13.176C36.8478 12.9032 35.9811 11.9804 34.5448 10.9693L34.5047 10.9934C33.3652 11.6193 31.4715 12.6704 28.6629 12.6785C28.2938 12.6785 28.0772 12.6624 27.8846 12.6544L27.371 12.6383C26.047 12.6383 25.7822 13.2081 25.7341 14.3074V14.6043L25.71 15.158C25.6618 16.3697 25.5013 17.7418 24.715 18.6967L24.6829 18.7369C24.715 18.8171 24.7471 18.8893 24.7792 18.9375C24.8514 19.0578 24.9396 19.106 25.052 19.106C25.1242 19.106 25.2125 19.0819 25.3007 19.0418C25.5334 18.9375 34.7775 14.6364 36.1657 13.9945C36.3663 13.8982 36.7515 13.7297 36.8799 13.6494C37.0163 13.5772 37.0725 13.4649 37.0725 13.3525C37.0725 13.2963 37.0564 13.2322 37.0163 13.176Z" fill="#009A93"/>
<path d="M20.7749 3.32208L20.6947 3.33813C19.7799 3.50664 18.3195 4.35722 18.3275 5.90592C18.3275 6.5559 18.5843 7.09353 18.8491 7.66326C19.154 8.32125 19.5071 9.06752 19.5071 10.0946C19.5151 11.6514 18.6164 12.5421 17.9905 12.9834C18.2794 12.9674 18.5843 12.9513 18.9213 12.9513C19.7879 12.9433 20.3095 13.0315 20.3416 13.0315L24.763 7.59906C23.5594 5.80963 22.1631 4.40537 20.7749 3.32208Z" fill="#009A93"/>
<path d="M17.0999 12.7186C17.9103 12.2532 18.7047 11.4427 18.6967 10.0866C18.6967 9.26812 18.4078 8.65025 18.1029 8.00028C17.806 7.35833 17.4931 6.69231 17.4931 5.8337C17.485 3.98008 18.9856 3.01716 19.9325 2.72828C16.9394 0.657997 14.1389 0 13.6173 0C13.4408 0 13.2803 0.120365 13.2803 0.361096C13.2803 0.505534 13.3364 0.914776 13.3605 1.13946C13.521 2.67211 14.6284 12.7988 14.6605 13.0556C14.6926 13.3124 14.8049 13.4649 15.0296 13.4568C15.0617 13.4568 15.1098 13.4568 15.1499 13.4488C15.3104 13.4328 15.6314 13.3846 16.0005 13.2402C16.4499 13.0797 16.7468 12.9272 17.0999 12.7186Z" fill="#009A93"/>
</g>
<path d="M64.6511 19.99V28H70.4311V27.07H65.7011V24.37H69.9911V23.44H65.7011V20.92H70.3411V19.99H64.6511Z" fill="#8C9695"/>
<path d="M77.96 19.99L75.13 26.76L72.3 19.99H71.15L74.54 28H75.68L79.07 19.99H77.96Z" fill="#8C9695"/>
<path d="M82.9519 19.99V28H84.0019V25.55H85.7919C87.8719 25.55 89.0919 24.44 89.0919 22.77C89.0919 21.1 87.8719 19.99 85.7919 19.99H82.9519ZM85.7119 24.6H84.0019V20.94H85.7119C87.1619 20.94 88.0419 21.58 88.0419 22.77C88.0419 23.96 87.1619 24.6 85.7119 24.6Z" fill="#8C9695"/>
<path d="M95.3167 28H96.4667L93.1767 19.99H92.0667L88.7667 28H89.8667L90.6667 26.02H94.5167L95.3167 28ZM91.0367 25.09L92.5967 21.22L94.1467 25.09H91.0367Z" fill="#8C9695"/>
<path d="M104.042 28L102.032 24.94C103.132 24.55 103.742 23.71 103.742 22.58C103.742 21 102.552 19.99 100.532 19.99H97.532V28H98.582V25.17H100.532C100.682 25.17 100.832 25.16 100.982 25.15L102.802 28H104.042ZM100.452 24.23H98.582V20.93H100.452C101.842 20.93 102.692 21.5 102.692 22.58C102.692 23.66 101.842 24.23 100.452 24.23Z" fill="#8C9695"/>
<path d="M110.519 28H111.859L108.329 23.67L111.629 19.99H110.319L106.209 24.61V19.99H105.159V28H106.209V26.03L107.649 24.43L110.519 28Z" fill="#8C9695"/>
<defs>
<clipPath id="clip0_698_1694">
<rect width="61.6511" height="29" fill="white"/>
</clipPath>
</defs>
</svg>
