<svg width="15" height="14" viewBox="0 0 15 14" fill="none" xmlns="http://www.w3.org/2000/svg">
<g clip-path="url(#clip0_37_77)">
<path d="M7.74996 3.0625C7.44711 3.0625 7.15106 2.97269 6.89924 2.80444C6.64743 2.63618 6.45117 2.39703 6.33527 2.11723C6.21937 1.83744 6.18905 1.52955 6.24813 1.23252C6.30722 0.935485 6.45305 0.662643 6.6672 0.448493C6.88135 0.234344 7.15419 0.0885068 7.45123 0.0294232C7.74826 -0.0296604 8.05614 0.000663478 8.33594 0.11656C8.61574 0.232457 8.85489 0.428721 9.02315 0.680534C9.1914 0.932346 9.28121 1.2284 9.28121 1.53125C9.28078 1.93723 9.11931 2.32646 8.83224 2.61353C8.54517 2.9006 8.15594 3.06207 7.74996 3.0625Z" fill="#677272"/>
<path d="M12.5625 3.08436L12.5502 3.08764L12.5387 3.0912C12.5113 3.09885 12.484 3.10705 12.4566 3.11553C11.9478 3.26483 9.4781 3.961 7.73821 3.961C6.12138 3.961 3.87509 3.35944 3.15649 3.15518C3.08498 3.12753 3.01194 3.10397 2.93774 3.08463C2.41821 2.94791 2.06274 3.47565 2.06274 3.95799C2.06274 4.43569 2.49204 4.66319 2.92544 4.82643V4.83409L5.52911 5.64729C5.79517 5.74928 5.86626 5.85346 5.90099 5.9437C6.01392 6.23327 5.92368 6.80666 5.89169 7.00682L5.7331 8.23729L4.8529 13.055C4.85017 13.0681 4.84771 13.0815 4.84552 13.0952L4.83923 13.1299C4.77579 13.5715 5.10009 14 5.71423 14C6.25017 14 6.48669 13.63 6.58923 13.1266C6.58923 13.1266 7.35485 8.81807 7.73767 8.81807C8.12048 8.81807 8.90907 13.1266 8.90907 13.1266C9.01161 13.63 9.24813 14 9.78407 14C10.3999 14 10.7242 13.5696 10.6591 13.1266C10.6533 13.0889 10.6465 13.0517 10.6383 13.0156L9.74606 8.23784L9.58774 7.00737C9.47317 6.29069 9.56532 6.05389 9.59649 5.99838C9.59733 5.99708 9.59806 5.9957 9.59868 5.99428C9.62821 5.93959 9.76274 5.81709 10.0766 5.69924L12.5179 4.84584C12.5329 4.84185 12.5477 4.83711 12.5622 4.83162C12.9997 4.66756 13.4372 4.44061 13.4372 3.95854C13.4372 3.47647 13.082 2.94791 12.5625 3.08436Z" fill="#677272"/>
</g>
<defs>
<clipPath id="clip0_37_77">
<rect width="14" height="14" fill="white" transform="translate(0.75)"/>
</clipPath>
</defs>
</svg>
