<svg width="18" height="19" viewBox="0 0 18 19" fill="none" xmlns="http://www.w3.org/2000/svg">
<path fill-rule="evenodd" clip-rule="evenodd" d="M8.40338 3.419C8.73288 3.0895 9.26712 3.0895 9.59662 3.419L14.6591 8.4815C14.9886 8.81101 14.9886 9.34524 14.6591 9.67475C14.3296 10.0043 13.7954 10.0043 13.4659 9.67475L9 5.20887L4.53412 9.67475C4.20462 10.0043 3.67038 10.0043 3.34088 9.67475C3.01137 9.34524 3.01137 8.81101 3.34088 8.4815L8.40338 3.419Z" fill="#8C9695"/>
<path fill-rule="evenodd" clip-rule="evenodd" d="M9 3.875C9.46599 3.875 9.84375 4.25276 9.84375 4.71875V14.9844C9.84375 15.4504 9.46599 15.8281 9 15.8281C8.53401 15.8281 8.15625 15.4504 8.15625 14.9844V4.71875C8.15625 4.25276 8.53401 3.875 9 3.875Z" fill="#8C9695"/>
</svg>
