<svg width="18" height="19" viewBox="0 0 18 19" fill="none" xmlns="http://www.w3.org/2000/svg">
<path fill-rule="evenodd" clip-rule="evenodd" d="M3.34088 9.32525C3.67038 8.99575 4.20462 8.99575 4.53412 9.32525L9 13.7911L13.4659 9.32525C13.7954 8.99575 14.3296 8.99575 14.6591 9.32525C14.9886 9.65476 14.9886 10.189 14.6591 10.5185L9.59662 15.581C9.26712 15.9105 8.73288 15.9105 8.40338 15.581L3.34088 10.5185C3.01137 10.189 3.01137 9.65476 3.34088 9.32525Z" fill="#8C9695"/>
<path fill-rule="evenodd" clip-rule="evenodd" d="M9 3.17188C9.46599 3.17188 9.84375 3.54963 9.84375 4.01562V14.2812C9.84375 14.7472 9.46599 15.125 9 15.125C8.53401 15.125 8.15625 14.7472 8.15625 14.2812V4.01562C8.15625 3.54963 8.53401 3.17188 9 3.17188Z" fill="#8C9695"/>
</svg>
