<svg width="18" height="19" viewBox="0 0 18 19" fill="none" xmlns="http://www.w3.org/2000/svg">
<path d="M14.0624 17.375C13.9249 17.3754 13.7919 17.3254 13.6887 17.2344L8.99994 13.0652L4.31115 17.2344C4.23001 17.3065 4.12973 17.3536 4.02241 17.37C3.9151 17.3864 3.80532 17.3714 3.70634 17.3268C3.60737 17.2822 3.52341 17.2099 3.4646 17.1186C3.4058 17.0274 3.37466 16.9211 3.37494 16.8125V3.875C3.37559 3.27846 3.61285 2.70654 4.03467 2.28473C4.45649 1.86291 5.0284 1.62565 5.62494 1.625H12.3749C12.9715 1.62565 13.5434 1.86291 13.9652 2.28473C14.387 2.70654 14.6243 3.27846 14.6249 3.875V16.8125C14.6249 16.9617 14.5657 17.1048 14.4602 17.2102C14.3547 17.3157 14.2116 17.375 14.0624 17.375Z" fill="#8FA1FF"/>
</svg>
