<svg width="21" height="20" viewBox="0 0 21 20" fill="none" xmlns="http://www.w3.org/2000/svg">
<g clip-path="url(#clip0_291_2103)">
<path d="M16.125 0H7.37499C6.82073 0.000457233 6.28227 0.184781 5.844 0.524089C5.40572 0.863397 5.0924 1.33852 4.95312 1.875H13.8594C14.626 1.875 15.3613 2.17955 15.9033 2.72164C16.4454 3.26374 16.75 3.99898 16.75 4.76562V16.6754L17.6094 17.3629C17.7159 17.4482 17.8474 17.4962 17.9838 17.4998C18.1202 17.5033 18.254 17.4621 18.3648 17.3824C18.4467 17.322 18.513 17.2429 18.5582 17.1517C18.6035 17.0606 18.6264 16.96 18.625 16.8582V2.5C18.625 1.83696 18.3616 1.20107 17.8928 0.732233C17.4239 0.263392 16.788 0 16.125 0Z" fill="#009A93"/>
<path d="M13 3.125H4.87504C4.212 3.125 3.57612 3.38839 3.10728 3.85723C2.63844 4.32607 2.37504 4.96196 2.37504 5.625V19.3602C2.3735 19.4615 2.39608 19.5617 2.4409 19.6526C2.48573 19.7435 2.55152 19.8224 2.63286 19.8828C2.74584 19.9649 2.88305 20.0067 3.0226 20.0017C3.16214 19.9967 3.29599 19.945 3.40278 19.8551L8.93754 15.1922L14.4723 19.8531C14.5784 19.9425 14.7112 19.9941 14.8498 19.9996C14.9885 20.0052 15.125 19.9645 15.2379 19.884C15.3203 19.8237 15.387 19.7446 15.4326 19.6533C15.4782 19.5619 15.5013 19.461 15.5 19.359V5.625C15.5 4.96196 15.2367 4.32607 14.7678 3.85723C14.299 3.38839 13.6631 3.125 13 3.125Z" fill="#009A93"/>
</g>
<defs>
<clipPath id="clip0_291_2103">
<rect width="20" height="20" fill="white" transform="translate(0.5)"/>
</clipPath>
</defs>
</svg>
