<svg width="14" height="14" viewBox="0 0 14 14" fill="none" xmlns="http://www.w3.org/2000/svg">
<path d="M13.125 3.50002C13.125 3.0359 12.9406 2.59078 12.6124 2.26259C12.2842 1.9344 11.8391 1.75002 11.375 1.75002H10.9375V1.32483C10.9375 1.0894 10.7565 0.887326 10.5211 0.875568C10.4619 0.872718 10.4028 0.881907 10.3473 0.90258C10.2918 0.923252 10.2411 0.954977 10.1982 0.995832C10.1553 1.03669 10.1212 1.08582 10.0979 1.14026C10.0745 1.19469 10.0625 1.2533 10.0625 1.31252V1.75002H3.9375V1.32483C3.9375 1.0894 3.75648 0.887326 3.52105 0.875568C3.4619 0.872718 3.40278 0.881907 3.34729 0.90258C3.29179 0.923252 3.24107 0.954977 3.19819 0.995832C3.15532 1.03669 3.12118 1.08582 3.09786 1.14026C3.07453 1.19469 3.06251 1.2533 3.0625 1.31252V1.75002H2.625C2.16087 1.75002 1.71575 1.9344 1.38756 2.26259C1.05937 2.59078 0.875 3.0359 0.875 3.50002V3.82815C0.875 3.85716 0.886523 3.88498 0.907035 3.90549C0.927547 3.926 0.955367 3.93753 0.984375 3.93753H13.0156C13.0446 3.93753 13.0725 3.926 13.093 3.90549C13.1135 3.88498 13.125 3.85716 13.125 3.82815V3.50002Z" fill="#677272"/>
<path d="M0.875 11.375C0.875 11.8392 1.05937 12.2843 1.38756 12.6125C1.71575 12.9406 2.16087 13.125 2.625 13.125H11.375C11.8391 13.125 12.2842 12.9406 12.6124 12.6125C12.9406 12.2843 13.125 11.8392 13.125 11.375V4.89455C13.125 4.8728 13.1164 4.85193 13.101 4.83655C13.0856 4.82117 13.0647 4.81252 13.043 4.81252H0.957031C0.935275 4.81252 0.91441 4.82117 0.899026 4.83655C0.883643 4.85193 0.875 4.8728 0.875 4.89455V11.375ZM10.2812 5.68752C10.411 5.68752 10.5379 5.72601 10.6458 5.79812C10.7538 5.87023 10.8379 5.97272 10.8875 6.09264C10.9372 6.21255 10.9502 6.3445 10.9249 6.4718C10.8996 6.5991 10.8371 6.71603 10.7453 6.80781C10.6535 6.89959 10.5366 6.96209 10.4093 6.98741C10.282 7.01274 10.15 6.99974 10.0301 6.95007C9.9102 6.9004 9.80771 6.81629 9.7356 6.70837C9.66349 6.60045 9.625 6.47357 9.625 6.34377C9.625 6.16972 9.69414 6.00281 9.81721 5.87973C9.94028 5.75666 10.1072 5.68752 10.2812 5.68752ZM10.2812 7.87502C10.411 7.87502 10.5379 7.91351 10.6458 7.98562C10.7538 8.05773 10.8379 8.16022 10.8875 8.28014C10.9372 8.40005 10.9502 8.532 10.9249 8.6593C10.8996 8.7866 10.8371 8.90353 10.7453 8.99531C10.6535 9.08709 10.5366 9.14959 10.4093 9.17491C10.282 9.20024 10.15 9.18724 10.0301 9.13757C9.9102 9.0879 9.80771 9.00379 9.7356 8.89587C9.66349 8.78795 9.625 8.66107 9.625 8.53127C9.625 8.35722 9.69414 8.19031 9.81721 8.06723C9.94028 7.94416 10.1072 7.87502 10.2812 7.87502ZM8.09375 5.68752C8.22354 5.68752 8.35042 5.72601 8.45834 5.79812C8.56626 5.87023 8.65038 5.97272 8.70005 6.09264C8.74972 6.21255 8.76271 6.3445 8.73739 6.4718C8.71207 6.5991 8.64957 6.71603 8.55779 6.80781C8.46601 6.89959 8.34908 6.96209 8.22178 6.98741C8.09448 7.01274 7.96253 6.99974 7.84261 6.95007C7.7227 6.9004 7.62021 6.81629 7.5481 6.70837C7.47599 6.60045 7.4375 6.47357 7.4375 6.34377C7.4375 6.16972 7.50664 6.00281 7.62971 5.87973C7.75278 5.75666 7.9197 5.68752 8.09375 5.68752ZM8.09375 7.87502C8.22354 7.87502 8.35042 7.91351 8.45834 7.98562C8.56626 8.05773 8.65038 8.16022 8.70005 8.28014C8.74972 8.40005 8.76271 8.532 8.73739 8.6593C8.71207 8.7866 8.64957 8.90353 8.55779 8.99531C8.46601 9.08709 8.34908 9.14959 8.22178 9.17491C8.09448 9.20024 7.96253 9.18724 7.84261 9.13757C7.7227 9.0879 7.62021 9.00379 7.5481 8.89587C7.47599 8.78795 7.4375 8.66107 7.4375 8.53127C7.4375 8.35722 7.50664 8.19031 7.62971 8.06723C7.75278 7.94416 7.9197 7.87502 8.09375 7.87502ZM8.09375 10.0625C8.22354 10.0625 8.35042 10.101 8.45834 10.1731C8.56626 10.2452 8.65038 10.3477 8.70005 10.4676C8.74972 10.5876 8.76271 10.7195 8.73739 10.8468C8.71207 10.9741 8.64957 11.091 8.55779 11.1828C8.46601 11.2746 8.34908 11.3371 8.22178 11.3624C8.09448 11.3877 7.96253 11.3747 7.84261 11.3251C7.7227 11.2754 7.62021 11.1913 7.5481 11.0834C7.47599 10.9754 7.4375 10.8486 7.4375 10.7188C7.4375 10.5447 7.50664 10.3778 7.62971 10.2547C7.75278 10.1317 7.9197 10.0625 8.09375 10.0625ZM5.90625 7.87502C6.03604 7.87502 6.16292 7.91351 6.27084 7.98562C6.37876 8.05773 6.46288 8.16022 6.51255 8.28014C6.56222 8.40005 6.57521 8.532 6.54989 8.6593C6.52457 8.7866 6.46207 8.90353 6.37029 8.99531C6.27851 9.08709 6.16158 9.14959 6.03428 9.17491C5.90698 9.20024 5.77503 9.18724 5.65511 9.13757C5.5352 9.0879 5.43271 9.00379 5.3606 8.89587C5.28849 8.78795 5.25 8.66107 5.25 8.53127C5.25 8.35722 5.31914 8.19031 5.44221 8.06723C5.56528 7.94416 5.7322 7.87502 5.90625 7.87502ZM5.90625 10.0625C6.03604 10.0625 6.16292 10.101 6.27084 10.1731C6.37876 10.2452 6.46288 10.3477 6.51255 10.4676C6.56222 10.5876 6.57521 10.7195 6.54989 10.8468C6.52457 10.9741 6.46207 11.091 6.37029 11.1828C6.27851 11.2746 6.16158 11.3371 6.03428 11.3624C5.90698 11.3877 5.77503 11.3747 5.65511 11.3251C5.5352 11.2754 5.43271 11.1913 5.3606 11.0834C5.28849 10.9754 5.25 10.8486 5.25 10.7188C5.25 10.5447 5.31914 10.3778 5.44221 10.2547C5.56528 10.1317 5.7322 10.0625 5.90625 10.0625ZM3.71875 7.87502C3.84854 7.87502 3.97542 7.91351 4.08334 7.98562C4.19126 8.05773 4.27538 8.16022 4.32505 8.28014C4.37472 8.40005 4.38771 8.532 4.36239 8.6593C4.33707 8.7866 4.27457 8.90353 4.18279 8.99531C4.09101 9.08709 3.97408 9.14959 3.84678 9.17491C3.71948 9.20024 3.58753 9.18724 3.46761 9.13757C3.3477 9.0879 3.24521 9.00379 3.1731 8.89587C3.10099 8.78795 3.0625 8.66107 3.0625 8.53127C3.0625 8.35722 3.13164 8.19031 3.25471 8.06723C3.37778 7.94416 3.5447 7.87502 3.71875 7.87502ZM3.71875 10.0625C3.84854 10.0625 3.97542 10.101 4.08334 10.1731C4.19126 10.2452 4.27538 10.3477 4.32505 10.4676C4.37472 10.5876 4.38771 10.7195 4.36239 10.8468C4.33707 10.9741 4.27457 11.091 4.18279 11.1828C4.09101 11.2746 3.97408 11.3371 3.84678 11.3624C3.71948 11.3877 3.58753 11.3747 3.46761 11.3251C3.3477 11.2754 3.24521 11.1913 3.1731 11.0834C3.10099 10.9754 3.0625 10.8486 3.0625 10.7188C3.0625 10.5447 3.13164 10.3778 3.25471 10.2547C3.37778 10.1317 3.5447 10.0625 3.71875 10.0625Z" fill="#677272"/>
</svg>
