<svg width="14" height="14" viewBox="0 0 14 14" fill="none" xmlns="http://www.w3.org/2000/svg">
<path d="M7 1.3125C3.86395 1.3125 1.3125 3.86395 1.3125 7C1.3125 10.1361 3.86395 12.6875 7 12.6875C10.1361 12.6875 12.6875 10.1361 12.6875 7C12.6875 3.86395 10.1361 1.3125 7 1.3125ZM9.95996 5.09387L6.28496 9.46887C6.24465 9.51688 6.19449 9.55567 6.13788 9.58261C6.08126 9.60955 6.01952 9.62401 5.95684 9.625H5.94945C5.88813 9.62498 5.8275 9.61207 5.77149 9.5871C5.71548 9.56213 5.66535 9.52567 5.62434 9.48008L4.04934 7.73008C4.00934 7.68765 3.97822 7.63766 3.95782 7.58304C3.93742 7.52842 3.92814 7.47027 3.93053 7.41201C3.93292 7.35375 3.94693 7.29656 3.97174 7.24379C3.99655 7.19103 4.03166 7.14375 4.075 7.10475C4.11835 7.06574 4.16905 7.0358 4.22413 7.01667C4.27921 6.99754 4.33756 6.98961 4.39574 6.99335C4.45393 6.9971 4.51078 7.01243 4.56296 7.03846C4.61514 7.06449 4.66158 7.10069 4.69957 7.14492L5.93797 8.52086L9.29004 4.53113C9.36523 4.4442 9.47161 4.39035 9.58618 4.38122C9.70076 4.37209 9.81432 4.40842 9.90233 4.48234C9.99034 4.55627 10.0457 4.66186 10.0565 4.77629C10.0673 4.89072 10.0326 5.0048 9.95996 5.09387Z" fill="#32AEA9"/>
</svg>
