<svg width="14" height="14" viewBox="0 0 14 14" fill="none" xmlns="http://www.w3.org/2000/svg">
<path d="M7 1.3125C3.86395 1.3125 1.3125 3.86395 1.3125 7C1.3125 10.1361 3.86395 12.6875 7 12.6875C10.1361 12.6875 12.6875 10.1361 12.6875 7C12.6875 3.86395 10.1361 1.3125 7 1.3125ZM9.05926 8.44074C9.10159 8.48096 9.13545 8.52925 9.15883 8.58277C9.18221 8.63628 9.19464 8.69393 9.19538 8.75232C9.19613 8.81071 9.18518 8.86866 9.16318 8.92275C9.14118 8.97685 9.10857 9.02599 9.06728 9.06728C9.02599 9.10857 8.97685 9.14118 8.92275 9.16318C8.86866 9.18518 8.81071 9.19613 8.75232 9.19538C8.69393 9.19464 8.63628 9.18221 8.58277 9.15883C8.52925 9.13545 8.48096 9.10159 8.44074 9.05926L7 7.61879L5.55926 9.05926C5.47654 9.13784 5.3664 9.181 5.25232 9.17954C5.13824 9.17808 5.02924 9.13211 4.94856 9.05144C4.86789 8.97076 4.82192 8.86176 4.82046 8.74768C4.819 8.6336 4.86216 8.52346 4.94074 8.44074L6.38121 7L4.94074 5.55926C4.86216 5.47654 4.819 5.3664 4.82046 5.25232C4.82192 5.13824 4.86789 5.02924 4.94856 4.94856C5.02924 4.86789 5.13824 4.82192 5.25232 4.82046C5.3664 4.819 5.47654 4.86216 5.55926 4.94074L7 6.38121L8.44074 4.94074C8.52346 4.86216 8.6336 4.819 8.74768 4.82046C8.86176 4.82192 8.97076 4.86789 9.05144 4.94856C9.13211 5.02924 9.17808 5.13824 9.17954 5.25232C9.181 5.3664 9.13784 5.47654 9.05926 5.55926L7.61879 7L9.05926 8.44074Z" fill="#677272"/>
</svg>
