<svg width="18" height="18" viewBox="0 0 18 18" fill="none" xmlns="http://www.w3.org/2000/svg">
<path d="M10.1932 8.99988L13.533 5.66003C13.6916 5.5018 13.7807 5.28709 13.7809 5.06312C13.7811 4.83916 13.6923 4.62428 13.5341 4.46578C13.3759 4.30727 13.1612 4.21811 12.9372 4.21791C12.7132 4.21771 12.4984 4.30649 12.3398 4.46472L9 7.80456L5.66016 4.46472C5.50165 4.30621 5.28666 4.21716 5.0625 4.21716C4.83833 4.21716 4.62335 4.30621 4.46484 4.46472C4.30633 4.62323 4.21729 4.83821 4.21729 5.06238C4.21729 5.28654 4.30633 5.50152 4.46484 5.66003L7.80469 8.99988L4.46484 12.3397C4.30633 12.4982 4.21729 12.7132 4.21729 12.9374C4.21729 13.1615 4.30633 13.3765 4.46484 13.535C4.62335 13.6935 4.83833 13.7826 5.0625 13.7826C5.28666 13.7826 5.50165 13.6935 5.66016 13.535L9 10.1952L12.3398 13.535C12.4984 13.6935 12.7133 13.7826 12.9375 13.7826C13.1617 13.7826 13.3766 13.6935 13.5352 13.535C13.6937 13.3765 13.7827 13.1615 13.7827 12.9374C13.7827 12.7132 13.6937 12.4982 13.5352 12.3397L10.1932 8.99988Z" fill="#B0BABA"/>
</svg>
