<svg width="18" height="18" viewBox="0 0 18 18" fill="none" xmlns="http://www.w3.org/2000/svg">
<path d="M14.3438 16.875H6.46875C5.79742 16.875 5.15359 16.6083 4.67889 16.1336C4.20418 15.6589 3.9375 15.0151 3.9375 14.3438V6.46875C3.9375 5.79742 4.20418 5.15359 4.67889 4.67889C5.15359 4.20418 5.79742 3.9375 6.46875 3.9375H14.3438C15.0151 3.9375 15.6589 4.20418 16.1336 4.67889C16.6083 5.15359 16.875 5.79742 16.875 6.46875V14.3438C16.875 15.0151 16.6083 15.6589 16.1336 16.1336C15.6589 16.6083 15.0151 16.875 14.3438 16.875Z" fill="white"/>
<path d="M5.625 2.8125H13.9177C13.7426 2.31934 13.4193 1.89242 12.9921 1.59029C12.5648 1.28816 12.0545 1.12563 11.5312 1.125H3.65625C2.98492 1.125 2.34109 1.39168 1.86639 1.86639C1.39168 2.34109 1.125 2.98492 1.125 3.65625V11.5312C1.12563 12.0545 1.28816 12.5648 1.59029 12.9921C1.89242 13.4193 2.31934 13.7426 2.8125 13.9177V5.625C2.8125 4.87908 3.10882 4.16371 3.63626 3.63626C4.16371 3.10882 4.87908 2.8125 5.625 2.8125Z" fill="white"/>
</svg>
