<svg width="18" height="19" viewBox="0 0 18 19" fill="none" xmlns="http://www.w3.org/2000/svg">
<path d="M16.1719 8.9375H11.25C10.8024 8.9375 10.3732 8.75971 10.0568 8.44324C9.74029 8.12678 9.5625 7.69755 9.5625 7.25V2.32812C9.5625 2.29083 9.54768 2.25506 9.52131 2.22869C9.49494 2.20232 9.45917 2.1875 9.42188 2.1875H7.5498C7.48415 2.06591 7.40767 1.95048 7.32129 1.84262C6.91594 1.33953 6.31371 1.0625 5.625 1.0625C4.30031 1.0625 3.375 2.10348 3.375 3.59375V8.65625C3.375 9.53516 4.09008 10.0625 4.78125 10.0625C4.96648 10.0645 5.15026 10.0295 5.32178 9.95958C5.49331 9.88962 5.64914 9.78612 5.78013 9.65513C5.91112 9.52414 6.01463 9.36831 6.08458 9.19678C6.15453 9.02526 6.18952 8.84148 6.1875 8.65625V3.3125C6.1875 3.16332 6.12824 3.02024 6.02275 2.91475C5.91726 2.80926 5.77418 2.75 5.625 2.75C5.47582 2.75 5.33274 2.80926 5.22725 2.91475C5.12176 3.02024 5.0625 3.16332 5.0625 3.3125V8.65625C5.06372 8.69351 5.05728 8.73063 5.04358 8.76531C5.02988 8.79999 5.00921 8.83148 4.98284 8.85784C4.95648 8.88421 4.92499 8.90488 4.89031 8.91858C4.85563 8.93228 4.81851 8.93872 4.78125 8.9375C4.70285 8.9375 4.5 8.88688 4.5 8.65625V3.59375C4.5 2.91383 4.79566 2.1875 5.625 2.1875C6.66879 2.1875 6.75 3.24746 6.75 3.57195V8.44988C6.75 9.06336 6.5577 9.61812 6.20824 10.0129C5.85352 10.4141 5.36027 10.625 4.78125 10.625C4.20223 10.625 3.70898 10.4141 3.35426 10.0129C3.0048 9.61812 2.8125 9.06336 2.8125 8.44988V5.5625C2.8125 5.41332 2.75324 5.27024 2.64775 5.16475C2.54226 5.05926 2.39918 5 2.25 5C2.10082 5 1.95774 5.05926 1.85225 5.16475C1.74676 5.27024 1.6875 5.41332 1.6875 5.5625V8.44988C1.6875 10.2608 2.85434 11.6009 4.5 11.738V15.6875C4.5 16.2842 4.73705 16.8565 5.15901 17.2785C5.58097 17.7004 6.15326 17.9375 6.75 17.9375H14.0625C14.6592 17.9375 15.2315 17.7004 15.6535 17.2785C16.0754 16.8565 16.3125 16.2842 16.3125 15.6875V9.07812C16.3125 9.04083 16.2977 9.00506 16.2713 8.97869C16.2449 8.95232 16.2092 8.9375 16.1719 8.9375Z" fill="#8FA1FF"/>
<path d="M11.25 7.81285H15.8136C15.8275 7.81279 15.841 7.80864 15.8525 7.80091C15.864 7.79318 15.873 7.78222 15.8783 7.7694C15.8836 7.75659 15.885 7.7425 15.8823 7.7289C15.8796 7.7153 15.873 7.7028 15.8632 7.69297L10.8074 2.63715C10.7976 2.62737 10.785 2.62072 10.7714 2.61803C10.7578 2.61535 10.7438 2.61674 10.7309 2.62203C10.7181 2.62733 10.7072 2.6363 10.6994 2.64781C10.6917 2.65932 10.6876 2.67285 10.6875 2.68672V7.25035C10.6875 7.39953 10.7468 7.54261 10.8523 7.6481C10.9577 7.75359 11.1008 7.81285 11.25 7.81285Z" fill="#8FA1FF"/>
</svg>
