<svg width="18" height="19" viewBox="0 0 18 19" fill="none" xmlns="http://www.w3.org/2000/svg">
<path d="M13.2188 6.125H9.5625V11.5169L11.4149 9.66488C11.5212 9.56385 11.6628 9.50835 11.8095 9.51023C11.9562 9.51211 12.0963 9.57121 12.2001 9.67494C12.3038 9.77866 12.3629 9.9188 12.3648 10.0655C12.3666 10.2122 12.3112 10.3538 12.2101 10.4601L9.39762 13.2726C9.29214 13.378 9.14912 13.4372 9 13.4372C8.85088 13.4372 8.70786 13.378 8.60238 13.2726L5.78988 10.4601C5.68885 10.3538 5.63335 10.2122 5.63523 10.0655C5.63711 9.9188 5.69621 9.77866 5.79994 9.67494C5.90366 9.57121 6.0438 9.51211 6.19048 9.51023C6.33716 9.50835 6.47877 9.56385 6.58512 9.66488L8.4375 11.5169V6.125H4.78125C4.25928 6.12556 3.75884 6.33316 3.38975 6.70225C3.02066 7.07134 2.81306 7.57178 2.8125 8.09375V15.4062C2.81306 15.9282 3.02066 16.4287 3.38975 16.7978C3.75884 17.1668 4.25928 17.3744 4.78125 17.375H13.2188C13.7407 17.3744 14.2412 17.1668 14.6103 16.7978C14.9793 16.4287 15.1869 15.9282 15.1875 15.4062V8.09375C15.1869 7.57178 14.9793 7.07134 14.6103 6.70225C14.2412 6.33316 13.7407 6.12556 13.2188 6.125Z" fill="#565863"/>
<path d="M9.5625 2.1875C9.5625 2.03832 9.50324 1.89524 9.39775 1.78975C9.29226 1.68426 9.14918 1.625 9 1.625C8.85082 1.625 8.70774 1.68426 8.60225 1.78975C8.49676 1.89524 8.4375 2.03832 8.4375 2.1875V6.125H9.5625V2.1875Z" fill="#565863"/>
</svg>
