<svg width="15" height="14" viewBox="0 0 15 14" fill="none" xmlns="http://www.w3.org/2000/svg">
<path d="M7.5 8.3125C8.22487 8.3125 8.8125 7.72487 8.8125 7C8.8125 6.27513 8.22487 5.6875 7.5 5.6875C6.77513 5.6875 6.1875 6.27513 6.1875 7C6.1875 7.72487 6.77513 8.3125 7.5 8.3125Z" fill="#434C4C"/>
<path d="M7.5 12.6875C8.22487 12.6875 8.8125 12.0999 8.8125 11.375C8.8125 10.6501 8.22487 10.0625 7.5 10.0625C6.77513 10.0625 6.1875 10.6501 6.1875 11.375C6.1875 12.0999 6.77513 12.6875 7.5 12.6875Z" fill="#434C4C"/>
<path d="M7.5 3.9375C8.22487 3.9375 8.8125 3.34987 8.8125 2.625C8.8125 1.90013 8.22487 1.3125 7.5 1.3125C6.77513 1.3125 6.1875 1.90013 6.1875 2.625C6.1875 3.34987 6.77513 3.9375 7.5 3.9375Z" fill="#434C4C"/>
</svg>
