<svg width="18" height="18" viewBox="0 0 18 18" fill="none" xmlns="http://www.w3.org/2000/svg">
<path d="M9.44741 2.38502L2.3732 3.70461C2.26473 3.725 2.1668 3.78269 2.09637 3.86767C2.02594 3.95265 1.98745 4.05959 1.98755 4.16997V13.8686C1.9879 13.9786 2.0266 14.0851 2.09699 14.1697C2.16738 14.2543 2.26506 14.3117 2.3732 14.332L9.41335 15.6175C9.48141 15.6298 9.55134 15.627 9.61822 15.6094C9.6851 15.5918 9.74731 15.5598 9.80049 15.5155C9.85366 15.4713 9.8965 15.416 9.926 15.3534C9.95551 15.2909 9.97095 15.2226 9.97126 15.1534L10.0073 2.85359C10.0079 2.78379 9.99305 2.7147 9.96379 2.65132C9.93454 2.58793 9.8916 2.53182 9.83806 2.48701C9.78453 2.4422 9.72173 2.40982 9.65418 2.39218C9.58663 2.37455 9.51602 2.3721 9.44741 2.38502ZM7.43172 11.3489L6.74397 11.3348C6.70739 11.3342 6.67178 11.3229 6.64152 11.3024C6.61126 11.2818 6.58766 11.2529 6.57364 11.2191L6.01122 9.88988C5.9969 9.85539 5.97267 9.82593 5.94162 9.8052C5.91056 9.78447 5.87405 9.77341 5.83671 9.77341C5.79937 9.77341 5.76287 9.78447 5.73181 9.8052C5.70075 9.82593 5.67653 9.85539 5.6622 9.88988L5.16535 11.0809C5.15025 11.117 5.12434 11.1475 5.09119 11.1682C5.05803 11.1889 5.01927 11.1988 4.98024 11.1966L4.38633 11.1625C4.35441 11.1608 4.32345 11.151 4.29634 11.1341C4.26923 11.1172 4.24685 11.0936 4.23131 11.0657C4.21577 11.0378 4.20757 11.0064 4.20748 10.9744C4.20739 10.9424 4.2154 10.911 4.23078 10.8829L5.24698 9.01894C5.26122 8.99189 5.26867 8.96177 5.26867 8.9312C5.26867 8.90063 5.26122 8.87052 5.24698 8.84347L4.30791 6.97047C4.29328 6.94162 4.28629 6.9095 4.28763 6.87718C4.28896 6.84485 4.29857 6.81342 4.31554 6.78588C4.3325 6.75833 4.35625 6.73561 4.38452 6.71987C4.41278 6.70414 4.44461 6.69592 4.47696 6.69601H5.10172C5.14042 6.69643 5.17809 6.70849 5.20985 6.73061C5.2416 6.75274 5.26596 6.7839 5.27976 6.82006L5.84539 8.36268L5.87046 8.38582L6.60706 6.65359C6.62078 6.6208 6.64352 6.59257 6.67265 6.57221C6.70178 6.55184 6.7361 6.54016 6.77161 6.53853L7.39765 6.50704C7.43109 6.50526 7.46441 6.5124 7.49418 6.52772C7.52396 6.54305 7.54912 6.56601 7.56711 6.59426C7.58509 6.62251 7.59524 6.65503 7.59653 6.6885C7.59781 6.72196 7.59018 6.75516 7.57441 6.78471L6.44701 8.9161L7.60398 11.0693C7.62 11.0986 7.62798 11.1316 7.62713 11.1649C7.62627 11.1983 7.61661 11.2308 7.59911 11.2592C7.58161 11.2876 7.55691 11.3109 7.52751 11.3266C7.49811 11.3424 7.46506 11.3501 7.43172 11.3489Z" fill="white"/>
<path d="M15.7837 3.8775H10.6005C10.54 3.8775 10.482 3.90154 10.4392 3.94433C10.3964 3.98712 10.3723 4.04516 10.3723 4.10568V4.4849C10.3723 4.54542 10.3964 4.60346 10.4392 4.64625C10.482 4.68904 10.54 4.71308 10.6005 4.71308H12.4902V6.01853H10.6005C10.54 6.01852 10.482 6.04257 10.4392 6.08536C10.3964 6.12815 10.3723 6.18619 10.3723 6.2467V6.2782C10.3723 6.33872 10.3964 6.39675 10.4392 6.43955C10.482 6.48234 10.54 6.50638 10.6005 6.50638H12.4902V7.81182H10.6005C10.54 7.81182 10.482 7.83586 10.4392 7.87865C10.3964 7.92145 10.3723 7.97948 10.3723 8.04V8.0715C10.3723 8.13201 10.3964 8.19005 10.4392 8.23284C10.482 8.27564 10.54 8.29968 10.6005 8.29968H12.4902V9.60512H10.6005C10.54 9.60512 10.482 9.62916 10.4392 9.67195C10.3964 9.71474 10.3723 9.77278 10.3723 9.8333V9.86479C10.3723 9.92531 10.3964 9.98335 10.4392 10.0261C10.482 10.0689 10.54 10.093 10.6005 10.093H12.4902V11.3984H10.6005C10.54 11.3984 10.482 11.4225 10.4392 11.4652C10.3964 11.508 10.3723 11.5661 10.3723 11.6266V11.6581C10.3719 11.6883 10.3775 11.7183 10.3888 11.7464C10.4001 11.7745 10.4168 11.8 10.438 11.8215C10.4593 11.843 10.4846 11.8601 10.5125 11.8718C10.5403 11.8835 10.5703 11.8895 10.6005 11.8895H12.4902V13.1949H10.6005C10.54 13.1949 10.482 13.219 10.4392 13.2618C10.3964 13.3046 10.3723 13.3626 10.3723 13.4231V13.8891C10.3723 13.9496 10.3964 14.0077 10.4392 14.0505C10.482 14.0932 10.54 14.1173 10.6005 14.1173H15.7812C15.8112 14.1174 15.8409 14.1115 15.8687 14.1001C15.8964 14.0887 15.9217 14.0719 15.9429 14.0507C15.9642 14.0295 15.981 14.0043 15.9925 13.9766C16.0041 13.9488 16.01 13.9191 16.01 13.8891V4.10568C16.01 4.04549 15.9862 3.98774 15.9438 3.94501C15.9015 3.90227 15.8439 3.878 15.7837 3.8775ZM12.8913 4.71308H15.0998V6.01853H12.8939L12.8913 4.71308ZM12.8913 6.50638H15.0998V7.81182H12.8939L12.8913 6.50638ZM12.8913 8.29968H15.0998V9.60512H12.8939L12.8913 8.29968ZM12.8913 10.093H15.0998V11.3984H12.8939L12.8913 10.093ZM12.8913 11.8863H15.0998V13.1917H12.8939L12.8913 11.8863Z" fill="white"/>
</svg>
