<svg width="18" height="18" viewBox="0 0 18 18" fill="none" xmlns="http://www.w3.org/2000/svg">
<path d="M9.44735 2.38502L2.37314 3.70461C2.26467 3.725 2.16674 3.78269 2.09631 3.86767C2.02588 3.95265 1.98739 4.05959 1.98749 4.16997V13.8686C1.98784 13.9786 2.02654 14.0851 2.09693 14.1697C2.16732 14.2543 2.26499 14.3117 2.37314 14.332L9.41329 15.6175C9.48135 15.6298 9.55128 15.627 9.61816 15.6094C9.68504 15.5918 9.74725 15.5598 9.80043 15.5155C9.8536 15.4713 9.89644 15.416 9.92594 15.3534C9.95545 15.2909 9.97089 15.2226 9.9712 15.1534L10.0072 2.85359C10.0078 2.78379 9.99299 2.7147 9.96373 2.65132C9.93448 2.58793 9.89154 2.53182 9.838 2.48701C9.78447 2.4422 9.72167 2.40982 9.65412 2.39218C9.58657 2.37455 9.51596 2.3721 9.44735 2.38502ZM7.43166 11.3489L6.74391 11.3348C6.70733 11.3342 6.67172 11.3229 6.64146 11.3024C6.6112 11.2818 6.5876 11.2529 6.57357 11.2191L6.01116 9.88988C5.99683 9.85539 5.97261 9.82593 5.94155 9.8052C5.9105 9.78447 5.87399 9.77341 5.83665 9.77341C5.79931 9.77341 5.76281 9.78447 5.73175 9.8052C5.70069 9.82593 5.67647 9.85539 5.66214 9.88988L5.16529 11.0809C5.15019 11.117 5.12428 11.1475 5.09113 11.1682C5.05797 11.1889 5.01921 11.1988 4.98018 11.1966L4.38627 11.1625C4.35435 11.1608 4.32338 11.151 4.29627 11.1341C4.26916 11.1172 4.24679 11.0936 4.23125 11.0657C4.21571 11.0378 4.20751 11.0064 4.20742 10.9744C4.20733 10.9424 4.21534 10.911 4.23072 10.8829L5.24692 9.01894C5.26116 8.99189 5.26861 8.96177 5.26861 8.9312C5.26861 8.90063 5.26116 8.87052 5.24692 8.84347L4.30785 6.97047C4.29322 6.94162 4.28623 6.9095 4.28757 6.87718C4.2889 6.84485 4.29851 6.81342 4.31548 6.78588C4.33244 6.75833 4.35619 6.73561 4.38446 6.71987C4.41272 6.70414 4.44455 6.69592 4.47689 6.69601H5.10166C5.14036 6.69643 5.17803 6.70849 5.20978 6.73061C5.24154 6.75274 5.2659 6.7839 5.2797 6.82006L5.84533 8.36268L5.8704 8.38582L6.607 6.65359C6.62072 6.6208 6.64346 6.59257 6.67259 6.57221C6.70172 6.55184 6.73604 6.54016 6.77154 6.53853L7.39759 6.50704C7.43103 6.50526 7.46435 6.5124 7.49412 6.52772C7.5239 6.54305 7.54906 6.56601 7.56705 6.59426C7.58503 6.62251 7.59518 6.65503 7.59647 6.6885C7.59775 6.72196 7.59012 6.75516 7.57435 6.78471L6.44695 8.9161L7.60392 11.0693C7.61994 11.0986 7.62792 11.1316 7.62707 11.1649C7.62621 11.1983 7.61654 11.2308 7.59905 11.2592C7.58155 11.2876 7.55685 11.3109 7.52745 11.3266C7.49805 11.3424 7.465 11.3501 7.43166 11.3489Z" fill="#0F8953"/>
<path d="M15.7837 3.8775H10.6005C10.5399 3.8775 10.4819 3.90154 10.4391 3.94433C10.3963 3.98712 10.3723 4.04516 10.3723 4.10568V4.4849C10.3723 4.54542 10.3963 4.60346 10.4391 4.64625C10.4819 4.68904 10.5399 4.71308 10.6005 4.71308H12.4902V6.01853H10.6005C10.5399 6.01852 10.4819 6.04257 10.4391 6.08536C10.3963 6.12815 10.3723 6.18619 10.3723 6.2467V6.2782C10.3723 6.33872 10.3963 6.39675 10.4391 6.43955C10.4819 6.48234 10.5399 6.50638 10.6005 6.50638H12.4902V7.81182H10.6005C10.5399 7.81182 10.4819 7.83586 10.4391 7.87865C10.3963 7.92145 10.3723 7.97948 10.3723 8.04V8.0715C10.3723 8.13201 10.3963 8.19005 10.4391 8.23284C10.4819 8.27564 10.5399 8.29968 10.6005 8.29968H12.4902V9.60512H10.6005C10.5399 9.60512 10.4819 9.62916 10.4391 9.67195C10.3963 9.71474 10.3723 9.77278 10.3723 9.8333V9.86479C10.3723 9.92531 10.3963 9.98335 10.4391 10.0261C10.4819 10.0689 10.5399 10.093 10.6005 10.093H12.4902V11.3984H10.6005C10.5399 11.3984 10.4819 11.4225 10.4391 11.4652C10.3963 11.508 10.3723 11.5661 10.3723 11.6266V11.6581C10.3719 11.6883 10.3774 11.7183 10.3887 11.7464C10.4 11.7745 10.4167 11.8 10.438 11.8215C10.4592 11.843 10.4845 11.8601 10.5124 11.8718C10.5403 11.8835 10.5702 11.8895 10.6005 11.8895H12.4902V13.1949H10.6005C10.5399 13.1949 10.4819 13.219 10.4391 13.2618C10.3963 13.3046 10.3723 13.3626 10.3723 13.4231V13.8891C10.3723 13.9496 10.3963 14.0077 10.4391 14.0505C10.4819 14.0932 10.5399 14.1173 10.6005 14.1173H15.7811C15.8111 14.1174 15.8409 14.1115 15.8686 14.1001C15.8964 14.0887 15.9216 14.0719 15.9429 14.0507C15.9641 14.0295 15.981 14.0043 15.9925 13.9766C16.004 13.9488 16.0099 13.9191 16.0099 13.8891V4.10568C16.0099 4.04549 15.9861 3.98774 15.9438 3.94501C15.9014 3.90227 15.8438 3.878 15.7837 3.8775ZM12.8913 4.71308H15.0998V6.01853H12.8938L12.8913 4.71308ZM12.8913 6.50638H15.0998V7.81182H12.8938L12.8913 6.50638ZM12.8913 8.29968H15.0998V9.60512H12.8938L12.8913 8.29968ZM12.8913 10.093H15.0998V11.3984H12.8938L12.8913 10.093ZM12.8913 11.8863H15.0998V13.1917H12.8938L12.8913 11.8863Z" fill="#0F8953"/>
</svg>
