<svg width="18" height="19" viewBox="0 0 18 19" fill="none" xmlns="http://www.w3.org/2000/svg">
<path d="M16.5938 6.40625H1.40625C1.18247 6.40625 0.967863 6.31736 0.809629 6.15912C0.651395 6.00089 0.5625 5.78628 0.5625 5.5625C0.5625 5.33872 0.651395 5.12411 0.809629 4.96588C0.967863 4.80764 1.18247 4.71875 1.40625 4.71875H16.5938C16.8175 4.71875 17.0321 4.80764 17.1904 4.96588C17.3486 5.12411 17.4375 5.33872 17.4375 5.5625C17.4375 5.78628 17.3486 6.00089 17.1904 6.15912C17.0321 6.31736 16.8175 6.40625 16.5938 6.40625Z" fill="#8C9695"/>
<path d="M13.7812 10.3438H4.21875C3.99497 10.3438 3.78036 10.2549 3.62213 10.0966C3.46389 9.93839 3.375 9.72378 3.375 9.5C3.375 9.27622 3.46389 9.06161 3.62213 8.90338C3.78036 8.74514 3.99497 8.65625 4.21875 8.65625H13.7812C14.005 8.65625 14.2196 8.74514 14.3779 8.90338C14.5361 9.06161 14.625 9.27622 14.625 9.5C14.625 9.72378 14.5361 9.93839 14.3779 10.0966C14.2196 10.2549 14.005 10.3438 13.7812 10.3438Z" fill="#8C9695"/>
<path d="M10.4062 14.2812H7.59375C7.36997 14.2812 7.15536 14.1924 6.99713 14.0341C6.83889 13.8759 6.75 13.6613 6.75 13.4375C6.75 13.2137 6.83889 12.9991 6.99713 12.8409C7.15536 12.6826 7.36997 12.5938 7.59375 12.5938H10.4062C10.63 12.5938 10.8446 12.6826 11.0029 12.8409C11.1611 12.9991 11.25 13.2137 11.25 13.4375C11.25 13.6613 11.1611 13.8759 11.0029 14.0341C10.8446 14.1924 10.63 14.2812 10.4062 14.2812Z" fill="#8C9695"/>
</svg>
