<svg width="20" height="20" viewBox="0 0 20 20" fill="none" xmlns="http://www.w3.org/2000/svg">
<path d="M16.1873 3.81259C15.3762 2.99351 14.4113 2.34275 13.348 1.89771C12.2847 1.45267 11.1439 1.2221 9.99126 1.21926C8.83858 1.21643 7.69669 1.44137 6.6312 1.88118C5.56571 2.32098 4.59762 2.96698 3.78254 3.78205C2.96747 4.59713 2.32147 5.56522 1.88167 6.63071C1.44186 7.6962 1.21692 8.83809 1.21975 9.99077C1.22259 11.1435 1.45315 12.2842 1.8982 13.3475C2.34324 14.4109 2.994 15.3758 3.81307 16.1868C4.62413 17.0059 5.58903 17.6566 6.65234 18.1017C7.71565 18.5467 8.85642 18.7773 10.0091 18.7801C11.1618 18.783 12.3037 18.558 13.3692 18.1182C14.4347 17.6784 15.4027 17.0324 16.2178 16.2173C17.0329 15.4023 17.6789 14.4342 18.1187 13.3687C18.5585 12.3032 18.7834 11.1613 18.7806 10.0086C18.7778 8.85593 18.5472 7.71516 18.1022 6.65185C17.6571 5.58854 17.0064 4.62364 16.1873 3.81259ZM7.18768 8.12469C7.3731 8.12469 7.55436 8.17968 7.70853 8.28269C7.8627 8.38571 7.98286 8.53212 8.05382 8.70343C8.12478 8.87473 8.14334 9.06323 8.10717 9.24509C8.071 9.42695 7.98171 9.594 7.8506 9.72511C7.71948 9.85622 7.55244 9.94551 7.37058 9.98168C7.18872 10.0179 7.00022 9.99929 6.82892 9.92833C6.65761 9.85737 6.51119 9.73721 6.40818 9.58304C6.30517 9.42887 6.25018 9.24761 6.25018 9.06219C6.24987 8.93899 6.27391 8.81695 6.32092 8.70306C6.36792 8.58918 6.43696 8.48571 6.52408 8.39859C6.6112 8.31148 6.71467 8.24243 6.82855 8.19543C6.94243 8.14842 7.06448 8.12439 7.18768 8.12469ZM13.7373 12.272C13.2685 13.8462 11.7764 14.9997 10.0021 14.9997C8.22792 14.9997 6.73573 13.8462 6.26307 12.272C6.24986 12.2251 6.24778 12.1758 6.25701 12.1279C6.26624 12.0801 6.28652 12.0351 6.31623 11.9965C6.34595 11.9579 6.38427 11.9268 6.42814 11.9057C6.47202 11.8845 6.52023 11.8739 6.56893 11.8747H13.4318C13.4805 11.874 13.5287 11.8846 13.5725 11.9058C13.6163 11.927 13.6546 11.9581 13.6842 11.9967C13.7139 12.0353 13.7342 12.0802 13.7434 12.128C13.7526 12.1758 13.7505 12.2251 13.7373 12.272ZM12.8127 9.99969C12.6273 9.99969 12.446 9.94471 12.2918 9.8417C12.1377 9.73868 12.0175 9.59227 11.9465 9.42096C11.8756 9.24965 11.857 9.06115 11.8932 8.8793C11.9294 8.69744 12.0187 8.53039 12.1498 8.39928C12.2809 8.26817 12.4479 8.17888 12.6298 8.14271C12.8116 8.10653 13.0001 8.1251 13.1714 8.19606C13.3428 8.26701 13.4892 8.38718 13.5922 8.54135C13.6952 8.69552 13.7502 8.87677 13.7502 9.06219C13.7505 9.1854 13.7265 9.30744 13.6795 9.42133C13.6324 9.53521 13.5634 9.63868 13.4763 9.7258C13.3892 9.81291 13.2857 9.88196 13.1718 9.92896C13.0579 9.97597 12.9359 10 12.8127 9.99969Z" fill="#67C23A"/>
</svg>
