<svg width="14" height="14" viewBox="0 0 14 14" fill="none" xmlns="http://www.w3.org/2000/svg">
<path fill-rule="evenodd" clip-rule="evenodd" d="M8.00356 3.00211C7.8343 2.91974 7.47106 2.83808 7.00711 2.84373C6.51539 2.8505 6.02964 2.95936 5.63996 3.28053M8.00356 3.00211C8.44085 3.21637 9.07813 3.63762 9.07813 4.4844C9.07813 5.41563 8.53906 5.83359 7.61025 6.47231C7.10646 6.81875 6.75224 7.18798 6.52895 7.60307C6.30369 8.02183 6.23438 8.44514 6.23438 8.8594C6.23438 9.16143 6.47923 9.40628 6.78126 9.40628C7.08329 9.40628 7.32813 9.16143 7.32813 8.8594C7.32813 8.57257 7.37476 8.3395 7.49218 8.12122C7.61157 7.89927 7.82679 7.6508 8.22999 7.37353L8.25101 7.35908C9.1318 6.75349 10.1719 6.03837 10.1719 4.4844C10.1719 2.95808 8.98254 2.2637 8.48414 2.0196L8.48324 2.01916C8.10496 1.83475 7.55309 1.7432 6.99329 1.75007L6.99254 1.75008C6.36275 1.75868 5.59686 1.89867 4.94429 2.43654C4.41916 2.8694 4.13983 3.36097 3.99292 3.74928C3.91975 3.94268 3.87925 4.11072 3.85679 4.23444C3.84554 4.29643 3.83874 4.34772 3.83464 4.38604C3.83259 4.40522 3.83121 4.42119 3.83029 4.43369C3.82982 4.43994 3.82947 4.44533 3.82921 4.44982C3.82908 4.45206 3.82897 4.45408 3.82888 4.45588L3.82875 4.45839L3.8287 4.45952C3.82869 4.45978 3.82865 4.46056 4.37501 4.4844L3.82865 4.46056C3.81549 4.76231 4.04942 5.01759 4.35117 5.03076C4.65098 5.04384 4.90493 4.81297 4.92108 4.51402C4.9212 4.51247 4.92153 4.50854 4.92219 4.5024C4.92367 4.48854 4.9268 4.46368 4.93296 4.42977C4.94531 4.3617 4.96951 4.25893 5.01591 4.1363C5.10812 3.89257 5.28736 3.57119 5.63996 3.28053" fill="#242424"/>
<path d="M6.78132 11.8121C7.26457 11.8121 7.65632 11.4203 7.65632 10.9371C7.65632 10.4538 7.26457 10.0621 6.78132 10.0621C6.29807 10.0621 5.90632 10.4538 5.90632 10.9371C5.90632 11.4203 6.29807 11.8121 6.78132 11.8121Z" fill="#242424"/>
</svg>
