<svg width="16" height="16" viewBox="0 0 16 16" fill="none" xmlns="http://www.w3.org/2000/svg">
<path d="M8.17375 3.16524C8.12723 3.12074 8.06533 3.0959 8.00094 3.0959C7.93656 3.0959 7.87466 3.12074 7.82813 3.16524L2.07501 8.66118C2.05057 8.68455 2.03113 8.71264 2.01787 8.74374C2.0046 8.77484 1.99778 8.80831 1.99782 8.84212L1.99688 14.0002C1.99688 14.2655 2.10224 14.5198 2.28977 14.7073C2.47731 14.8949 2.73166 15.0002 2.99688 15.0002H6C6.13261 15.0002 6.25979 14.9476 6.35356 14.8538C6.44733 14.76 6.5 14.6329 6.5 14.5002V10.2502C6.5 10.1839 6.52634 10.1203 6.57323 10.0735C6.62011 10.0266 6.6837 10.0002 6.75 10.0002H9.25C9.31631 10.0002 9.3799 10.0266 9.42678 10.0735C9.47367 10.1203 9.5 10.1839 9.5 10.2502V14.5002C9.5 14.6329 9.55268 14.76 9.64645 14.8538C9.74022 14.9476 9.8674 15.0002 10 15.0002H13.0019C13.2671 15.0002 13.5214 14.8949 13.709 14.7073C13.8965 14.5198 14.0019 14.2655 14.0019 14.0002V8.84212C14.0019 8.80831 13.9951 8.77484 13.9818 8.74374C13.9686 8.71264 13.9491 8.68455 13.9247 8.66118L8.17375 3.16524Z" fill="#B0BABA"/>
<path d="M15.3409 7.6297L13.0034 5.39344V2C13.0034 1.86739 12.9508 1.74022 12.857 1.64645C12.7632 1.55268 12.6361 1.5 12.5034 1.5H11.0034C10.8708 1.5 10.7437 1.55268 10.6499 1.64645C10.5561 1.74022 10.5034 1.86739 10.5034 2V3L8.69345 1.26938C8.52407 1.09813 8.2722 1 8.00001 1C7.72876 1 7.47751 1.09813 7.30814 1.26969L0.661262 7.62907C0.466887 7.81657 0.442512 8.12501 0.619387 8.32813C0.663803 8.37941 0.718187 8.4211 0.77923 8.45069C0.840273 8.48028 0.906698 8.49713 0.974462 8.50023C1.04223 8.50333 1.10991 8.49261 1.1734 8.46871C1.23689 8.44482 1.29485 8.40826 1.34376 8.36126L7.82814 2.165C7.87466 2.1205 7.93656 2.09566 8.00095 2.09566C8.06533 2.09566 8.12724 2.1205 8.17376 2.165L14.6588 8.36126C14.7543 8.45287 14.8822 8.50286 15.0146 8.50029C15.1469 8.49771 15.2728 8.44277 15.3647 8.34751C15.5566 8.14876 15.5406 7.82063 15.3409 7.6297Z" fill="#B0BABA"/>
</svg>
