<svg width="18" height="18" viewBox="0 0 18 18" fill="none" xmlns="http://www.w3.org/2000/svg">
<path d="M9 1.5C4.8645 1.5 1.5 4.8645 1.5 9C1.5 13.1355 4.8645 16.5 9 16.5C13.1355 16.5 16.5 13.1355 16.5 9C16.5 4.8645 13.1355 1.5 9 1.5ZM9 4.575C9.19284 4.575 9.38134 4.63218 9.54168 4.73932C9.70202 4.84645 9.82699 4.99873 9.90078 5.17688C9.97458 5.35504 9.99389 5.55108 9.95627 5.74021C9.91865 5.92934 9.82579 6.10307 9.68943 6.23943C9.55307 6.37579 9.37935 6.46865 9.19021 6.50627C9.00108 6.54389 8.80504 6.52458 8.62688 6.45078C8.44873 6.37699 8.29645 6.25202 8.18932 6.09168C8.08218 5.93134 8.025 5.74284 8.025 5.55C8.025 5.29141 8.12772 5.04342 8.31057 4.86057C8.49342 4.67772 8.74141 4.575 9 4.575V4.575ZM10.8 13.05H7.5C7.34087 13.05 7.18826 12.9868 7.07574 12.8743C6.96321 12.7617 6.9 12.6091 6.9 12.45C6.9 12.2909 6.96321 12.1383 7.07574 12.0257C7.18826 11.9132 7.34087 11.85 7.5 11.85H8.55V8.55H7.95C7.79087 8.55 7.63826 8.48679 7.52574 8.37426C7.41321 8.26174 7.35 8.10913 7.35 7.95C7.35 7.79087 7.41321 7.63826 7.52574 7.52574C7.63826 7.41321 7.79087 7.35 7.95 7.35H9.15C9.30913 7.35 9.46174 7.41321 9.57426 7.52574C9.68679 7.63826 9.75 7.79087 9.75 7.95V11.85H10.8C10.9591 11.85 11.1117 11.9132 11.2243 12.0257C11.3368 12.1383 11.4 12.2909 11.4 12.45C11.4 12.6091 11.3368 12.7617 11.2243 12.8743C11.1117 12.9868 10.9591 13.05 10.8 13.05Z" fill="#009A93"/>
</svg>
