<svg width="14" height="14" viewBox="0 0 14 14" fill="none" xmlns="http://www.w3.org/2000/svg">
<path d="M10.0625 5.25H9.625V3.0625C9.625 2.36631 9.34844 1.69863 8.85616 1.20634C8.36387 0.714062 7.69619 0.4375 7 0.4375C6.30381 0.4375 5.63613 0.714062 5.14384 1.20634C4.65156 1.69863 4.375 2.36631 4.375 3.0625V5.25H3.9375C3.47353 5.25051 3.0287 5.43504 2.70062 5.76312C2.37254 6.0912 2.18801 6.53603 2.1875 7V11.8125C2.18801 12.2765 2.37254 12.7213 2.70062 13.0494C3.0287 13.3775 3.47353 13.562 3.9375 13.5625H10.0625C10.5265 13.562 10.9713 13.3775 11.2994 13.0494C11.6275 12.7213 11.812 12.2765 11.8125 11.8125V7C11.812 6.53603 11.6275 6.0912 11.2994 5.76312C10.9713 5.43504 10.5265 5.25051 10.0625 5.25ZM8.75 5.25H5.25V3.0625C5.25 2.59837 5.43437 2.15325 5.76256 1.82506C6.09075 1.49687 6.53587 1.3125 7 1.3125C7.46413 1.3125 7.90925 1.49687 8.23744 1.82506C8.56563 2.15325 8.75 2.59837 8.75 3.0625V5.25Z" fill="#B0BABA"/>
</svg>
