<svg width="21" height="20" viewBox="0 0 21 20" fill="none" xmlns="http://www.w3.org/2000/svg">
<path fill-rule="evenodd" clip-rule="evenodd" d="M3 5.9375C3 5.41973 3.41973 5 3.9375 5H17.0625C17.5803 5 18 5.41973 18 5.9375C18 6.45527 17.5803 6.875 17.0625 6.875H3.9375C3.41973 6.875 3 6.45527 3 5.9375Z" fill="#009A93"/>
<path fill-rule="evenodd" clip-rule="evenodd" d="M3 10C3 9.48223 3.41973 9.0625 3.9375 9.0625H17.0625C17.5803 9.0625 18 9.48223 18 10C18 10.5178 17.5803 10.9375 17.0625 10.9375H3.9375C3.41973 10.9375 3 10.5178 3 10Z" fill="#009A93"/>
<path fill-rule="evenodd" clip-rule="evenodd" d="M3 14.0625C3 13.5447 3.41973 13.125 3.9375 13.125H17.0625C17.5803 13.125 18 13.5447 18 14.0625C18 14.5803 17.5803 15 17.0625 15H3.9375C3.41973 15 3 14.5803 3 14.0625Z" fill="#009A93"/>
</svg>
