<svg width="16" height="16" viewBox="0 0 16 16" fill="none" xmlns="http://www.w3.org/2000/svg">
<path d="M2 4.5H9.08594C9.1894 4.79235 9.38093 5.04545 9.63416 5.22445C9.88739 5.40346 10.1899 5.49958 10.5 5.49958C10.8101 5.49958 11.1126 5.40346 11.3658 5.22445C11.6191 5.04545 11.8106 4.79235 11.9141 4.5H14C14.1326 4.5 14.2598 4.44732 14.3536 4.35356C14.4473 4.25979 14.5 4.13261 14.5 4C14.5 3.86739 14.4473 3.74022 14.3536 3.64645C14.2598 3.55268 14.1326 3.5 14 3.5H11.9141C11.8106 3.20765 11.6191 2.95456 11.3658 2.77555C11.1126 2.59655 10.8101 2.50043 10.5 2.50043C10.1899 2.50043 9.88739 2.59655 9.63416 2.77555C9.38093 2.95456 9.1894 3.20765 9.08594 3.5H2C1.86739 3.5 1.74021 3.55268 1.64645 3.64645C1.55268 3.74022 1.5 3.86739 1.5 4C1.5 4.13261 1.55268 4.25979 1.64645 4.35356C1.74021 4.44732 1.86739 4.5 2 4.5Z" fill="#B0BABA"/>
<path d="M14 11.5H11.9141C11.8106 11.2077 11.6191 10.9546 11.3658 10.7756C11.1126 10.5965 10.8101 10.5004 10.5 10.5004C10.1899 10.5004 9.88739 10.5965 9.63416 10.7756C9.38093 10.9546 9.1894 11.2077 9.08594 11.5H2C1.86739 11.5 1.74021 11.5527 1.64645 11.6465C1.55268 11.7402 1.5 11.8674 1.5 12C1.5 12.1326 1.55268 12.2598 1.64645 12.3536C1.74021 12.4473 1.86739 12.5 2 12.5H9.08594C9.1894 12.7924 9.38093 13.0454 9.63416 13.2245C9.88739 13.4035 10.1899 13.4996 10.5 13.4996C10.8101 13.4996 11.1126 13.4035 11.3658 13.2245C11.6191 13.0454 11.8106 12.7924 11.9141 12.5H14C14.1326 12.5 14.2598 12.4473 14.3536 12.3536C14.4473 12.2598 14.5 12.1326 14.5 12C14.5 11.8674 14.4473 11.7402 14.3536 11.6465C14.2598 11.5527 14.1326 11.5 14 11.5Z" fill="#B0BABA"/>
<path d="M14 7.5H6.91406C6.8106 7.20766 6.61907 6.95456 6.36584 6.77556C6.11261 6.59655 5.81011 6.50043 5.5 6.50043C5.18989 6.50043 4.88739 6.59655 4.63416 6.77556C4.38093 6.95456 4.1894 7.20766 4.08594 7.5H2C1.86739 7.5 1.74021 7.55268 1.64645 7.64645C1.55268 7.74022 1.5 7.8674 1.5 8C1.5 8.13261 1.55268 8.25979 1.64645 8.35356C1.74021 8.44733 1.86739 8.5 2 8.5H4.08594C4.1894 8.79235 4.38093 9.04545 4.63416 9.22445C4.88739 9.40346 5.18989 9.49958 5.5 9.49958C5.81011 9.49958 6.11261 9.40346 6.36584 9.22445C6.61907 9.04545 6.8106 8.79235 6.91406 8.5H14C14.1326 8.5 14.2598 8.44733 14.3536 8.35356C14.4473 8.25979 14.5 8.13261 14.5 8C14.5 7.8674 14.4473 7.74022 14.3536 7.64645C14.2598 7.55268 14.1326 7.5 14 7.5Z" fill="#B0BABA"/>
</svg>
