<svg width="18" height="18" viewBox="0 0 18 18" fill="none" xmlns="http://www.w3.org/2000/svg">
<path fill-rule="evenodd" clip-rule="evenodd" d="M12.6073 3.77211C12.8126 3.77198 13.0095 3.85348 13.1547 3.99864L14.0019 4.84591C14.1471 4.99107 14.2286 5.188 14.2285 5.39329C14.2283 5.59858 14.1466 5.7954 14.0013 5.94039L4.41063 15.5075C4.33877 15.5791 4.2535 15.636 4.15969 15.6747L2.75625 16.2545C2.46737 16.3738 2.13507 16.3075 1.91406 16.0865C1.69305 15.8655 1.62678 15.5332 1.74611 15.2443L2.32584 13.8409C2.36459 13.7471 2.42143 13.6618 2.49311 13.5899L12.0602 3.99932C12.2052 3.85397 12.402 3.77224 12.6073 3.77211Z" fill="white"/>
<path fill-rule="evenodd" clip-rule="evenodd" d="M14.4142 1.79057C14.5785 1.72252 14.7546 1.6875 14.9324 1.6875C15.1102 1.6875 15.2863 1.72252 15.4505 1.79057C15.6148 1.85861 15.764 1.95834 15.8897 2.08406C15.8897 2.08405 15.8897 2.08407 15.8897 2.08406L15.9163 2.11063C16.17 2.3645 16.3125 2.70871 16.3125 3.06761C16.3125 3.4265 16.17 3.77071 15.9163 4.02458L15.5016 4.43927C15.1996 4.74132 14.7098 4.74132 14.4078 4.43927L13.5605 3.59201C13.4154 3.44692 13.334 3.25013 13.334 3.04494C13.334 2.83976 13.4156 2.643 13.5608 2.49797L13.975 2.08409C14.1007 1.95848 14.2501 1.85857 14.4142 1.79057ZM15.3692 3.47788L15.5016 3.34547L15.0913 2.9352L14.6543 2.4982" fill="white"/>
</svg>
