<svg width="14" height="14" viewBox="0 0 14 14" fill="none" xmlns="http://www.w3.org/2000/svg">
<path fill-rule="evenodd" clip-rule="evenodd" d="M6.56223 1.31238C7.3316 1.31146 8.09311 1.46707 8.80044 1.76976C9.50786 2.07248 10.1463 2.51597 10.6769 3.07324L10.6845 3.0813L11.2693 3.76157C11.4268 3.9448 11.4059 4.22103 11.2227 4.37853C11.0395 4.53604 10.7632 4.51518 10.6057 4.33194L10.0356 3.66873C9.5884 3.20111 9.05115 2.82879 8.4562 2.5742C7.85792 2.31818 7.2138 2.18657 6.56305 2.18738C3.90623 2.18738 1.75 4.34307 1.75 6.99988C1.75 9.65668 3.90567 11.8124 6.56247 11.8124M6.56223 1.31238C3.42229 1.31253 0.875 3.85991 0.875 6.99988C0.875 10.1399 3.42244 12.6874 6.5625 12.6874C7.73877 12.6873 8.88613 12.3227 9.84663 11.6437C10.8071 10.9647 11.5336 10.0047 11.9261 8.89585C12.0067 8.66807 11.8874 8.41807 11.6596 8.33745C11.4318 8.25683 11.1818 8.37613 11.1012 8.60391C10.7691 9.54225 10.1543 10.3546 9.34155 10.9292C8.52875 11.5038 7.55784 11.8123 6.56247 11.8124" fill="#C4C5CE"/>
<path d="M12.6875 2.6637V5.68737C12.6875 5.8034 12.6414 5.91468 12.5594 5.99673C12.4773 6.07877 12.366 6.12487 12.25 6.12487H9.22633C8.83641 6.12487 8.64117 5.65373 8.9168 5.37811L11.9408 2.35416C12.2164 2.07799 12.6875 2.27377 12.6875 2.6637Z" fill="#C4C5CE"/>
</svg>
