<svg width="14" height="14" viewBox="0 0 14 14" fill="none" xmlns="http://www.w3.org/2000/svg">
<path d="M7.00001 8.3125C7.72489 8.3125 8.31251 7.72487 8.31251 7C8.31251 6.27513 7.72489 5.6875 7.00001 5.6875C6.27514 5.6875 5.68751 6.27513 5.68751 7C5.68751 7.72487 6.27514 8.3125 7.00001 8.3125Z" fill="#2C2E38"/>
<path d="M12.8622 8.20312L12.8494 8.19273L11.9864 7.51598C11.9318 7.47274 11.8882 7.41716 11.8592 7.3538C11.8302 7.29044 11.8166 7.2211 11.8196 7.15148V6.83539C11.8169 6.76622 11.8306 6.69738 11.8596 6.63454C11.8887 6.5717 11.9322 6.51664 11.9867 6.47391L12.8494 5.79688L12.8622 5.78648C12.9953 5.67565 13.0846 5.5211 13.1141 5.35048C13.1437 5.17986 13.1116 5.00428 13.0236 4.85516L11.8557 2.83445C11.8544 2.83255 11.8532 2.83053 11.8522 2.82844C11.7637 2.68137 11.6265 2.56994 11.4644 2.5135C11.3023 2.45706 11.1256 2.45916 10.9649 2.51945L10.9553 2.52301L9.94083 2.93125C9.8768 2.95714 9.80754 2.96744 9.73875 2.96131C9.66996 2.95518 9.60361 2.93278 9.54517 2.89598C9.45548 2.83947 9.36434 2.78605 9.27173 2.73574C9.21169 2.70318 9.16014 2.65697 9.12124 2.60083C9.08234 2.54469 9.05718 2.48019 9.04779 2.41254L8.89493 1.33L8.89165 1.31031C8.85838 1.14264 8.7684 0.991531 8.63684 0.882381C8.50529 0.773231 8.34017 0.712692 8.16923 0.710938H5.83079C5.65745 0.711492 5.48987 0.773204 5.35756 0.8852C5.22526 0.997197 5.13672 1.15229 5.10755 1.32316L5.10509 1.33848L4.95279 2.4232C4.94344 2.49066 4.91848 2.55501 4.87989 2.61112C4.84129 2.66723 4.79014 2.71355 4.73048 2.74641C4.63697 2.79672 4.54564 2.85004 4.45704 2.90555C4.39871 2.94213 4.33253 2.96435 4.26394 2.97039C4.19535 2.97642 4.1263 2.9661 4.06247 2.94027L3.0472 2.53012L3.03763 2.52629C2.8767 2.46593 2.69971 2.46391 2.53744 2.52056C2.37517 2.57721 2.2379 2.68896 2.14951 2.83637L2.14595 2.84238L0.976459 4.86445C0.88831 5.01373 0.856138 5.1895 0.885694 5.36032C0.91525 5.53115 1.00461 5.68589 1.13779 5.79688L1.15064 5.80727L2.01361 6.48402C2.06826 6.52726 2.11187 6.58284 2.14087 6.6462C2.16986 6.70956 2.18341 6.7789 2.1804 6.84852V7.16461C2.18314 7.23378 2.16943 7.30262 2.14038 7.36546C2.11134 7.4283 2.0678 7.48336 2.01333 7.52609L1.15064 8.20312L1.13779 8.21352C1.00474 8.32435 0.915455 8.4789 0.885899 8.64952C0.856343 8.82014 0.888443 8.99572 0.976459 9.14484L2.14431 11.1655C2.14565 11.1675 2.14684 11.1695 2.14786 11.1716C2.23636 11.3186 2.37356 11.4301 2.53565 11.4865C2.69773 11.5429 2.87447 11.5408 3.03517 11.4805L3.04474 11.477L4.05837 11.0687C4.1224 11.0429 4.19167 11.0326 4.26046 11.0387C4.32925 11.0448 4.3956 11.0672 4.45404 11.104C4.54372 11.1607 4.63487 11.2141 4.72747 11.2643C4.78752 11.2968 4.83906 11.343 4.87796 11.3992C4.91686 11.4553 4.94203 11.5198 4.95142 11.5875L5.10345 12.67L5.10673 12.6897C5.14006 12.8576 5.23028 13.009 5.36218 13.1181C5.49407 13.2273 5.65958 13.2877 5.83079 13.2891H8.16923C8.34257 13.2885 8.51016 13.2268 8.64247 13.1148C8.77477 13.0028 8.86331 12.8477 8.89247 12.6768L8.89493 12.6615L9.04724 11.5768C9.05673 11.5092 9.0819 11.4448 9.12074 11.3887C9.15957 11.3325 9.211 11.2863 9.27091 11.2536C9.36443 11.2033 9.45576 11.15 9.54435 11.0945C9.60268 11.0579 9.66886 11.0356 9.73746 11.0296C9.80605 11.0236 9.87509 11.0339 9.93892 11.0597L10.9542 11.4685L10.9638 11.4723C11.1247 11.5328 11.3017 11.5349 11.464 11.4782C11.6263 11.4216 11.7636 11.3097 11.8519 11.1623C11.853 11.1602 11.8542 11.1582 11.8554 11.1562L13.0233 9.13582C13.1116 8.98656 13.1439 8.81074 13.1144 8.63984C13.0849 8.46894 12.9955 8.31413 12.8622 8.20312ZM9.18505 7.10281C9.16514 7.52625 9.02262 7.93478 8.77484 8.27873C8.52705 8.62267 8.18466 8.88721 7.78932 9.04018C7.39397 9.19314 6.96269 9.22794 6.54794 9.14034C6.13318 9.05275 5.75281 8.84653 5.45308 8.54676C5.15335 8.247 4.94717 7.8666 4.85963 7.45183C4.77208 7.03706 4.80693 6.60579 4.95994 6.21047C5.11295 5.81514 5.37753 5.47278 5.72151 5.22504C6.06548 4.97729 6.47403 4.83482 6.89747 4.81496C7.20147 4.80158 7.50493 4.8516 7.78855 4.96184C8.07216 5.07208 8.32974 5.24014 8.54489 5.45532C8.76005 5.6705 8.92807 5.92809 9.03828 6.21172C9.14849 6.49536 9.19847 6.79882 9.18505 7.10281Z" fill="#2C2E38"/>
</svg>
