<svg width="18" height="18" viewBox="0 0 18 18" fill="none" xmlns="http://www.w3.org/2000/svg">
<path d="M15.1873 2.81259C14.3762 1.99351 13.4113 1.34275 12.348 0.89771C11.2847 0.452665 10.1439 0.222102 8.99126 0.219265C7.83858 0.216428 6.69669 0.441373 5.6312 0.881178C4.56571 1.32098 3.59762 1.96698 2.78254 2.78205C1.96747 3.59713 1.32147 4.56522 0.881666 5.63071C0.441861 6.6962 0.216916 7.83809 0.219753 8.99077C0.22259 10.1435 0.453154 11.2842 0.898198 12.3475C1.34324 13.4109 1.994 14.3758 2.81307 15.1868C3.62413 16.0059 4.58903 16.6566 5.65234 17.1017C6.71565 17.5467 7.85642 17.7773 9.0091 17.7801C10.1618 17.783 11.3037 17.558 12.3692 17.1182C13.4347 16.6784 14.4027 16.0324 15.2178 15.2173C16.0329 14.4023 16.6789 13.4342 17.1187 12.3687C17.5585 11.3032 17.7834 10.1613 17.7806 9.00861C17.7778 7.85593 17.5472 6.71516 17.1022 5.65185C16.6571 4.58854 16.0064 3.62364 15.1873 2.81259ZM6.18768 7.12469C6.3731 7.12469 6.55436 7.17968 6.70853 7.28269C6.8627 7.38571 6.98286 7.53212 7.05382 7.70343C7.12478 7.87473 7.14334 8.06323 7.10717 8.24509C7.071 8.42695 6.98171 8.594 6.8506 8.72511C6.71948 8.85622 6.55244 8.94551 6.37058 8.98168C6.18872 9.01785 6.00022 8.99929 5.82892 8.92833C5.65761 8.85737 5.51119 8.73721 5.40818 8.58304C5.30517 8.42887 5.25018 8.24761 5.25018 8.06219C5.24987 7.93899 5.27391 7.81695 5.32092 7.70306C5.36792 7.58918 5.43696 7.48571 5.52408 7.39859C5.6112 7.31148 5.71467 7.24243 5.82855 7.19543C5.94243 7.14842 6.06448 7.12439 6.18768 7.12469ZM12.7373 11.272C12.2685 12.8462 10.7764 13.9997 9.00214 13.9997C7.22792 13.9997 5.73573 12.8462 5.26307 11.272C5.24986 11.2251 5.24778 11.1758 5.25701 11.1279C5.26624 11.0801 5.28652 11.0351 5.31623 10.9965C5.34595 10.9579 5.38427 10.9268 5.42814 10.9057C5.47202 10.8845 5.52023 10.8739 5.56893 10.8747H12.4318C12.4805 10.874 12.5287 10.8846 12.5725 10.9058C12.6163 10.927 12.6546 10.9581 12.6842 10.9967C12.7139 11.0353 12.7342 11.0802 12.7434 11.128C12.7526 11.1758 12.7505 11.2251 12.7373 11.272ZM11.8127 8.99969C11.6273 8.99969 11.446 8.94471 11.2918 8.8417C11.1377 8.73868 11.0175 8.59227 10.9465 8.42096C10.8756 8.24965 10.857 8.06115 10.8932 7.8793C10.9294 7.69744 11.0187 7.53039 11.1498 7.39928C11.2809 7.26817 11.4479 7.17888 11.6298 7.14271C11.8116 7.10653 12.0001 7.1251 12.1714 7.19606C12.3428 7.26701 12.4892 7.38718 12.5922 7.54135C12.6952 7.69552 12.7502 7.87677 12.7502 8.06219C12.7505 8.1854 12.7265 8.30744 12.6795 8.42133C12.6324 8.53521 12.5634 8.63868 12.4763 8.7258C12.3892 8.81291 12.2857 8.88196 12.1718 8.92896C12.0579 8.97597 11.9359 9 11.8127 8.99969Z" fill="#67C23A"/>
</svg>
