<svg width="14" height="14" viewBox="0 0 14 14" fill="none" xmlns="http://www.w3.org/2000/svg">
<path d="M7 1.3125C3.85902 1.3125 1.3125 3.85902 1.3125 7C1.3125 10.141 3.85902 12.6875 7 12.6875C10.141 12.6875 12.6875 10.141 12.6875 7C12.6875 3.85902 10.141 1.3125 7 1.3125ZM9.625 7.875H7C6.88397 7.875 6.77269 7.82891 6.69064 7.74686C6.60859 7.66481 6.5625 7.55353 6.5625 7.4375V3.5C6.5625 3.38397 6.60859 3.27269 6.69064 3.19064C6.77269 3.10859 6.88397 3.0625 7 3.0625C7.11603 3.0625 7.22731 3.10859 7.30936 3.19064C7.39141 3.27269 7.4375 3.38397 7.4375 3.5V7H9.625C9.74103 7 9.85231 7.04609 9.93436 7.12814C10.0164 7.21019 10.0625 7.32147 10.0625 7.4375C10.0625 7.55353 10.0164 7.66481 9.93436 7.74686C9.85231 7.82891 9.74103 7.875 9.625 7.875Z" fill="#8C9695"/>
</svg>
