<svg width="14" height="14" viewBox="0 0 14 14" fill="none" xmlns="http://www.w3.org/2000/svg">
<path d="M11.8125 2.625H9.1875V1.96875C9.1875 1.67867 9.07227 1.40047 8.86715 1.19535C8.66203 0.990234 8.38383 0.875 8.09375 0.875H5.90625C5.61617 0.875 5.33797 0.990234 5.13285 1.19535C4.92773 1.40047 4.8125 1.67867 4.8125 1.96875V2.625H2.1875C2.07147 2.625 1.96019 2.67109 1.87814 2.75314C1.79609 2.83519 1.75 2.94647 1.75 3.0625C1.75 3.17853 1.79609 3.28981 1.87814 3.37186C1.96019 3.45391 2.07147 3.5 2.1875 3.5H2.65234L3.17188 11.8377C3.2107 12.5718 3.77344 13.125 4.48438 13.125H9.51562C10.2301 13.125 10.7816 12.5841 10.8281 11.8398L11.3477 3.5H11.8125C11.9285 3.5 12.0398 3.45391 12.1219 3.37186C12.2039 3.28981 12.25 3.17853 12.25 3.0625C12.25 2.94647 12.2039 2.83519 12.1219 2.75314C12.0398 2.67109 11.9285 2.625 11.8125 2.625ZM5.26559 11.375H5.25C5.13662 11.3751 5.02764 11.3311 4.94602 11.2524C4.86441 11.1737 4.81654 11.0664 4.8125 10.9531L4.59375 4.82809C4.58962 4.71205 4.63175 4.59913 4.71087 4.51416C4.78999 4.42919 4.89963 4.37913 5.01566 4.375C5.1317 4.37087 5.24462 4.413 5.32959 4.49212C5.41456 4.57124 5.46462 4.68088 5.46875 4.79691L5.6875 10.9219C5.68958 10.9794 5.68032 11.0367 5.66024 11.0906C5.64016 11.1444 5.60965 11.1938 5.57046 11.2359C5.53128 11.278 5.48418 11.3119 5.43187 11.3358C5.37956 11.3597 5.32305 11.373 5.26559 11.375ZM7.4375 10.9375C7.4375 11.0535 7.39141 11.1648 7.30936 11.2469C7.22731 11.3289 7.11603 11.375 7 11.375C6.88397 11.375 6.77269 11.3289 6.69064 11.2469C6.60859 11.1648 6.5625 11.0535 6.5625 10.9375V4.8125C6.5625 4.69647 6.60859 4.58519 6.69064 4.50314C6.77269 4.42109 6.88397 4.375 7 4.375C7.11603 4.375 7.22731 4.42109 7.30936 4.50314C7.39141 4.58519 7.4375 4.69647 7.4375 4.8125V10.9375ZM8.3125 2.625H5.6875V1.96875C5.68717 1.93993 5.6926 1.91134 5.70348 1.88465C5.71436 1.85796 5.73046 1.83371 5.75084 1.81334C5.77121 1.79296 5.79546 1.77686 5.82215 1.76598C5.84884 1.7551 5.87743 1.74967 5.90625 1.75H8.09375C8.12257 1.74967 8.15116 1.7551 8.17785 1.76598C8.20454 1.77686 8.22879 1.79296 8.24917 1.81334C8.26954 1.83371 8.28564 1.85796 8.29652 1.88465C8.3074 1.91134 8.31283 1.93993 8.3125 1.96875V2.625ZM9.1875 10.9531C9.18346 11.0664 9.13559 11.1737 9.05398 11.2524C8.97236 11.3311 8.86338 11.3751 8.75 11.375H8.73414C8.6767 11.373 8.62022 11.3596 8.56794 11.3357C8.51566 11.3118 8.4686 11.2779 8.42944 11.2358C8.39028 11.1937 8.3598 11.1444 8.33974 11.0905C8.31967 11.0366 8.31042 10.9794 8.3125 10.9219L8.53125 4.79691C8.5333 4.73946 8.54664 4.68297 8.57052 4.63068C8.59439 4.57838 8.62834 4.5313 8.67041 4.49212C8.71248 4.45294 8.76186 4.42243 8.81573 4.40234C8.86959 4.38224 8.92688 4.37295 8.98434 4.375C9.04179 4.37705 9.09828 4.39039 9.15057 4.41427C9.20287 4.43814 9.24995 4.47209 9.28913 4.51416C9.32831 4.55623 9.35882 4.60561 9.37891 4.65948C9.39901 4.71334 9.4083 4.77063 9.40625 4.82809L9.1875 10.9531Z" fill="#677272"/>
</svg>
